<?xml version="1.0" encoding="UTF-8" standalone="no"?>
<svg
   xmlns:dc="http://purl.org/dc/elements/1.1/"
   xmlns:cc="http://creativecommons.org/ns#"
   xmlns:rdf="http://www.w3.org/1999/02/22-rdf-syntax-ns#"
   xmlns:svg="http://www.w3.org/2000/svg"
   xmlns="http://www.w3.org/2000/svg"
   xmlns:sodipodi="http://sodipodi.sourceforge.net/DTD/sodipodi-0.dtd"
   xmlns:inkscape="http://www.inkscape.org/namespaces/inkscape"
   inkscape:version="1.0 (4035a4fb49, 2020-05-01)"
   sodipodi:docname="my-babys-got-LED_mounting-plate_sandwich-enclosure.svg"
   id="svg8"
   version="1.1"
   viewBox="0 0 420 297"
   height="297mm"
   width="420mm">
  <defs
     id="defs2">
    <marker
       id="DistanceX"
       orient="auto"
       refX="0"
       refY="0"
       style="overflow:visible">
      <path
         d="m 3,-3 -6,6 m 3,-8 v 10"
         style="stroke:#000000;stroke-width:0.5"
         id="path10" />
    </marker>
    <pattern
       id="Hatch"
       patternUnits="userSpaceOnUse"
       width="8"
       height="8"
       x="0"
       y="0">
      <path
         d="M8 4 l-4,4"
         stroke="#000000"
         stroke-width="0.25"
         linecap="square"
         id="path13" />
      <path
         d="M6 2 l-4,4"
         stroke="#000000"
         stroke-width="0.25"
         linecap="square"
         id="path15" />
      <path
         d="M4 0 l-4,4"
         stroke="#000000"
         stroke-width="0.25"
         linecap="square"
         id="path17" />
    </pattern>
    <symbol
       id="$MODEL_SPACE" />
    <symbol
       id="$PAPER_SPACE" />
    <symbol
       id="A$C1AC0434A" />
    <clipPath
       clipPathUnits="userSpaceOnUse"
       id="clipPath2368">
      <path
         d="m 0,243.1081 h 900 v 374.8919 h -900 z"
         id="path2366" />
    </clipPath>
  </defs>
  <sodipodi:namedview
     inkscape:snap-midpoints="true"
     showguides="false"
     inkscape:snap-nodes="false"
     inkscape:object-nodes="true"
     inkscape:snap-smooth-nodes="true"
     inkscape:snap-intersection-paths="true"
     inkscape:object-paths="true"
     inkscape:window-maximized="1"
     inkscape:window-y="-6"
     inkscape:window-x="-6"
     inkscape:window-height="668"
     inkscape:window-width="1280"
     showgrid="false"
     inkscape:document-rotation="0"
     inkscape:current-layer="layer3"
     inkscape:document-units="mm"
     inkscape:cy="684.20519"
     inkscape:cx="830.01044"
     inkscape:zoom="0.3535534"
     inkscape:pageshadow="2"
     inkscape:pageopacity="0.0"
     borderopacity="1.0"
     bordercolor="#666666"
     pagecolor="#ffffff"
     id="base" />
  <metadata
     id="metadata5">
    <rdf:RDF>
      <cc:Work
         rdf:about="">
        <dc:format>image/svg+xml</dc:format>
        <dc:type
           rdf:resource="http://purl.org/dc/dcmitype/StillImage" />
        <dc:title />
      </cc:Work>
    </rdf:RDF>
  </metadata>
  <g
     style="display:inline"
     inkscape:groupmode="layer"
     id="layer3"
     inkscape:label="For Cutting">
    <path
       id="path81"
       style="fill:none;stroke:#ff0000;stroke-width:0.1;stroke-miterlimit:4;stroke-dasharray:none"
       d="m 233.49459,272.03613 a 1.5000023,1.5000023 0 1 0 -3,0 1.5000023,1.5000023 0 1 0 3,0 z" />
    <path
       id="path83"
       style="fill:none;stroke:#ff0000;stroke-width:0.1;stroke-miterlimit:4;stroke-dasharray:none"
       d="m 233.49459,192.03613 a 1.5000023,1.5000023 0 1 0 -3,0 1.5000023,1.5000023 0 1 0 3,0 z" />
    <path
       id="path85"
       style="fill:none;stroke:#ff0000;stroke-width:0.1;stroke-miterlimit:4;stroke-dasharray:none"
       d="m 240.41074,264.43691 a 2,2 0 1 0 -4,0 2,2 0 1 0 4,0 z" />
    <path
       id="path87"
       style="fill:none;stroke:#ff0000;stroke-width:0.1;stroke-miterlimit:4;stroke-dasharray:none"
       d="m 239.91074,254.15692 a 1.5000023,1.5000023 0 1 0 -3,0 1.5000023,1.5000023 0 1 0 3,0 z" />
    <path
       id="path89"
       style="fill:none;stroke:#ff0000;stroke-width:0.1;stroke-miterlimit:4;stroke-dasharray:none"
       d="m 239.91074,246.53692 a 1.5000023,1.5000023 0 1 0 -3,0 1.5000023,1.5000023 0 1 0 3,0 z" />
    <path
       id="path91"
       style="fill:none;stroke:#ff0000;stroke-width:0.1;stroke-miterlimit:4;stroke-dasharray:none"
       d="m 239.91074,238.91692 a 1.5000023,1.5000023 0 1 0 -3,0 1.5000023,1.5000023 0 1 0 3,0 z" />
    <g
       style="font-style:normal;font-variant:normal;font-weight:normal;font-stretch:normal;font-size:3.52778px;line-height:1.25;font-family:Transport;-inkscape-font-specification:Transport;fill:none;fill-opacity:1;stroke:#000000;stroke-width:0.1;stroke-miterlimit:4;stroke-dasharray:none"
       id="text403"
       aria-label="WiFi"
       transform="translate(206.37499)">
      <path
         id="path198"
         style="font-style:normal;font-variant:normal;font-weight:normal;font-stretch:normal;font-size:3.52778px;font-family:Transport;-inkscape-font-specification:Transport;fill:none;stroke:#000000;stroke-width:0.1;stroke-miterlimit:4;stroke-dasharray:none"
         d="m 37.33728,237.45308 h 0.02756 0.07579 0.03445 0.08957 0.02756 0.117134 0.05512 0.04823 l 0.0069,0.0482 0.0069,0.0207 0.01378,0.0482 0.01378,0.0827 0.02067,0.0689 0.01378,0.0827 0.02067,0.0689 0.0069,0.0551 q 0.01034,0.0258 0.01378,0.0482 l 0.0069,0.0276 0.0069,0.0207 0.0069,0.0207 v 0.0276 q 0.0086,0.007 0.0069,0.0138 v 0.0207 q 0.01895,0.0396 0.02067,0.0827 l 0.01378,0.0413 0.01378,0.0482 0.01378,0.0827 0.02067,0.0689 0.0069,0.0413 0.04134,0.17225 q 0.01206,0.0465 0.01378,0.0827 l 0.01378,0.0276 v 0.0276 l 0.01378,0.0345 v 0.0276 l 0.01378,0.0276 v 0.0276 q 0.01895,0.0517 0.02067,0.0896 l 0.0069,0.0276 q 0.02412,0.0689 0.02756,0.11713 l 0.01378,0.0551 0.01378,0.0482 0.01378,-0.0413 0.02756,-0.13781 0.01378,-0.0344 0.0069,-0.0413 0.02067,-0.0965 0.01378,-0.0482 v -0.0207 l 0.01378,-0.0551 0.0069,-0.0276 0.0069,-0.0276 0.0069,-0.0413 0.01378,-0.0276 0.0069,-0.0276 0.0069,-0.0344 v -0.0276 l 0.0069,-0.0207 0.01378,-0.0551 0.01378,-0.0551 0.01378,-0.0827 0.0069,-0.0276 0.0069,-0.0138 0.0069,-0.0138 q 0.0034,-0.0551 0.02067,-0.0965 l 0.0069,-0.0344 v -0.0207 l 0.01378,-0.0551 0.0069,-0.0207 0.02067,-0.0896 0.0069,-0.0413 0.01378,-0.0413 0.0069,-0.0344 0.02067,-0.0896 0.0069,-0.0345 0.0069,-0.0138 q 0.0017,-0.0396 0.01378,-0.0689 l 0.0069,-0.0207 v -0.0207 l 0.0069,-0.0276 0.0069,-0.0207 0.02067,-0.0965 h 0.02756 0.02067 0.124024 0.08957 0.02756 0.117133 0.02067 0.08268 v 0.0207 q 0.02584,0.062 0.02756,0.11713 l 0.01378,0.0551 0.0069,0.0207 0.02756,0.12403 0.01378,0.0551 q 0.01206,0.0465 0.01378,0.0827 0.01034,0.0258 0.01378,0.0482 l 0.01378,0.0482 0.0069,0.0482 0.0069,0.0276 0.0069,0.0207 q 0.01033,0.0431 0.01378,0.0758 0.02239,0.0655 0.02756,0.11024 l 0.0069,0.0413 0.01378,0.0344 0.0069,0.0413 v 0.0207 q 0.01722,0.0413 0.02067,0.0758 l 0.0069,0.0413 q 0.01723,0.0413 0.02067,0.0758 l 0.0069,0.0344 0.02067,0.0758 v 0.0276 q 0.0069,0.0189 0.0069,0.0345 0.01895,0.0379 0.02067,0.0689 l 0.0069,0.0345 0.0069,0.0413 0.0069,0.0276 q 0.01723,0.0551 0.02067,0.0965 0.0086,0.007 0.0069,0.0138 v 0.0207 q 0.02584,0.062 0.02756,0.11714 0.01206,-0.005 0.01378,-0.0138 0.01723,-0.0844 0.03445,-0.13092 v -0.0276 q 0.02239,-0.0637 0.02756,-0.11024 l 0.01378,-0.0482 0.01378,-0.0551 0.01378,-0.0551 0.0069,-0.0551 0.01378,-0.0482 0.0069,-0.0207 v -0.0207 q 0.02412,-0.0637 0.02756,-0.11024 l 0.01378,-0.0482 0.01378,-0.0551 0.04134,-0.17226 0.02067,-0.11024 0.01378,-0.0551 q 0.01723,-0.0482 0.02067,-0.0827 l 0.0069,-0.0344 0.01378,-0.0551 q 0.0155,-0.0499 0.02067,-0.0827 l 0.0069,-0.0276 0.02067,-0.0965 0.0069,-0.0207 0.0069,-0.0207 v -0.0207 l 0.02067,-0.0551 v -0.0276 l 0.0069,-0.0207 0.02067,-0.0965 h 0.02756 0.117133 0.07579 0.02756 0.117133 0.05512 0.04823 l -0.02756,0.1378 -0.01378,0.0551 -0.0069,0.0276 -0.0069,0.0207 -0.02067,0.0965 -0.01378,0.0551 -0.01378,0.0482 -0.02756,0.1378 -0.01378,0.0482 -0.02756,0.13091 -0.01378,0.0482 -0.0069,0.0207 -0.01378,0.0758 -0.0069,0.0138 -0.0069,0.0482 q -0.01723,0.0568 -0.02067,0.0965 l -0.01378,0.0413 -0.01378,0.0413 -0.0069,0.0482 -0.0069,0.0276 -0.0069,0.0207 -0.0069,0.0482 -0.0069,0.0207 -0.04134,0.17226 -0.0069,0.0482 -0.01378,0.0482 -0.03445,0.13781 -0.0069,0.0482 -0.04134,0.17225 -0.02067,0.0965 q -0.01723,0.0517 -0.02067,0.0896 l -0.02756,0.0896 v 0.0276 q -0.01723,0.0517 -0.02067,0.0896 -0.01723,0.0568 -0.02067,0.0965 l -0.01378,0.0482 -0.0069,0.0138 -0.0069,0.0482 q -0.01723,0.0568 -0.02067,0.0965 h -0.02756 -0.02067 -0.124024 -0.08957 -0.02756 -0.117134 -0.02067 -0.08268 l -0.0069,-0.0551 q -0.01033,-0.0258 -0.01378,-0.0482 l -0.01378,-0.0551 -0.0069,-0.0482 -0.01378,-0.0482 q -0.01206,-0.0413 -0.01378,-0.0758 l -0.0069,-0.0276 -0.0069,-0.0345 q -0.0069,-0.0103 -0.0069,-0.0207 l -0.0069,-0.0344 -0.0069,-0.0207 q -0.01034,-0.0431 -0.01378,-0.0758 -0.02239,-0.0655 -0.02756,-0.11025 l -0.0069,-0.0276 -0.0069,-0.0344 q -0.01206,-0.0413 -0.01378,-0.0758 -0.02412,-0.0706 -0.02756,-0.12402 -0.0069,-0.0103 -0.0069,-0.0207 l -0.0069,-0.0276 -0.0069,-0.0207 q -0.0052,-0.0396 -0.01378,-0.0689 l -0.01378,-0.062 -0.0069,-0.0413 -0.01378,-0.0344 -0.0069,-0.0413 -0.0069,-0.0413 -0.0069,-0.0207 v -0.0207 q -0.01723,-0.0413 -0.02067,-0.0758 l -0.0069,-0.0413 -0.0069,-0.0413 -0.01378,-0.0344 -0.0069,-0.0276 -0.0069,-0.0276 v -0.0276 q -0.02067,-0.0569 -0.02067,-0.0965 -0.0069,-0.0103 -0.0069,-0.0207 l -0.0069,-0.0207 v -0.0207 q -0.01895,-0.0396 -0.02067,-0.0827 -0.01895,-0.0534 -0.02067,-0.10335 l -0.01378,0.0276 -0.0069,0.0413 -0.02067,0.0896 -0.01378,0.0758 -0.0069,0.0207 -0.02067,0.0896 -0.0069,0.0276 -0.0069,0.0276 -0.0069,0.0344 -0.0069,0.0345 -0.0069,0.0276 -0.01378,0.0758 -0.0069,0.0207 -0.02756,0.13092 -0.01378,0.0482 -0.0069,0.0482 q -0.01723,0.0517 -0.02067,0.0896 l -0.0069,0.0138 -0.0069,0.0413 -0.0069,0.0207 -0.02756,0.13781 -0.0069,0.0345 -0.0069,0.0207 -0.02756,0.13091 -0.0069,0.0276 -0.0069,0.0345 -0.0069,0.0207 -0.02756,0.13091 -0.0069,0.0276 -0.0069,0.0276 -0.0069,0.0344 -0.0069,0.0344 -0.0069,0.0138 -0.01378,0.062 -0.0069,0.0276 -0.0069,0.0482 q -0.01033,0.0396 -0.01378,0.0689 -0.01206,0.0344 -0.01378,0.062 -0.06718,0.0138 -0.117133,0.007 h -0.02756 -0.03445 -0.08957 -0.02756 -0.117134 -0.02067 -0.08268 v -0.0276 q -0.02584,-0.0637 -0.02756,-0.11713 -0.0069,-0.0103 -0.0069,-0.0207 l -0.0069,-0.0344 q -0.0379,-0.12575 -0.04823,-0.20671 l -0.0069,-0.0207 -0.03445,-0.13091 -0.0069,-0.0551 -0.04134,-0.15847 -0.01378,-0.0551 v -0.0276 q -0.01895,-0.0396 -0.02067,-0.0827 l -0.01378,-0.0413 -0.01378,-0.0482 v -0.0207 l -0.03445,-0.1378 v -0.0207 l -0.0069,-0.0276 -0.01378,-0.0276 -0.0069,-0.0551 q -0.02584,-0.0827 -0.03445,-0.1378 l -0.0069,-0.0207 v -0.0207 q -0.0069,-0.0103 -0.0069,-0.0207 l -0.01378,-0.0551 -0.0069,-0.0207 q -0.01206,-0.0724 -0.02756,-0.11714 l -0.0069,-0.0482 q -0.02412,-0.0689 -0.02756,-0.11713 l -0.0069,-0.0345 q -0.0069,-0.0103 -0.0069,-0.0207 l -0.03445,-0.13781 -0.01378,-0.0482 -0.0069,-0.0344 -0.0069,-0.0276 -0.0069,-0.0482 q -0.0155,-0.0396 -0.01378,-0.0689 l -0.01378,-0.0344 -0.0069,-0.0276 q -0.0086,-0.05 -0.02067,-0.0827 v -0.0276 q -0.0069,-0.0103 -0.0069,-0.0207 l -0.03445,-0.13091 v -0.007 0.007 -0.0138 0.007 z" />
      <path
         id="path200"
         style="font-style:normal;font-variant:normal;font-weight:normal;font-stretch:normal;font-size:3.52778px;font-family:Transport;-inkscape-font-specification:Transport;fill:none;stroke:#000000;stroke-width:0.1;stroke-miterlimit:4;stroke-dasharray:none"
         d="m 40.966691,237.46686 q 0.232544,-0.009 0.303168,0.19292 0.0069,0.15848 -0.08957,0.25494 -0.268718,0.13091 -0.392742,-0.10335 -0.07062,-0.26355 0.179146,-0.34451 z m -0.130914,0.74414 h 0.08957 0.02756 0.02756 0.02756 0.117133 0.05512 0.04823 v 1.88102 h -0.02756 -0.08957 -0.02756 -0.02756 -0.02756 -0.117133 -0.02067 -0.08268 v -0.0207 -0.0344 -0.0207 -0.0276 -0.0207 -0.13781 -0.0482 -0.0276 -0.0344 -0.0276 -0.0344 -0.0896 -0.0276 -0.11714 -0.0207 -0.0827 -0.0482 -0.0482 -0.0413 -0.0482 -0.0413 -0.0482 -0.0413 -0.11713 -0.0413 -0.0344 -0.0413 -0.0276 -0.12402 -0.0758 -0.0276 -0.0276 -0.0276 -0.0276 -0.11714 -0.0207 -0.0827 z" />
      <path
         id="path202"
         style="font-style:normal;font-variant:normal;font-weight:normal;font-stretch:normal;font-size:3.52778px;font-family:Transport;-inkscape-font-specification:Transport;fill:none;stroke:#000000;stroke-width:0.1;stroke-miterlimit:4;stroke-dasharray:none"
         d="m 42.008833,237.45997 h 0.04823 0.137804 0.05512 0.05512 0.05512 0.05512 0.137804 0.02067 0.02067 0.213596 0.04823 0.04134 0.04823 0.04134 0.03445 0.04134 0.02756 0.124024 0.07579 0.02756 0.02756 0.02756 0.02756 0.117134 0.02067 0.08268 v 0.40652 h -0.02067 -0.03445 -0.02067 -0.02756 -0.02067 -0.137804 -0.02756 -0.03445 -0.08957 -0.02756 -0.117133 -0.02067 -0.08268 -0.02756 -0.02756 -0.02067 -0.124024 -0.08957 -0.02756 -0.117134 -0.02067 -0.08268 v 0.68902 h 0.04823 0.04134 0.117133 0.02067 0.08268 0.08957 0.02756 0.117133 0.02067 0.08268 0.07579 0.03445 0.08957 0.02756 0.117134 0.02067 0.08268 v 0.41341 h -0.04823 -0.04134 -0.117133 -0.02067 -0.08268 -0.08957 -0.02756 -0.117133 -0.02067 -0.08268 -0.07579 -0.03445 -0.08957 -0.02756 -0.117134 -0.02067 -0.08268 v 1.1231 h -0.02756 -0.124024 -0.02756 -0.02756 -0.02756 -0.117133 -0.02067 -0.08268 v -0.0207 -0.0276 -0.0207 -0.0276 -0.12402 -0.0551 -0.0551 -0.0207 -0.1378 -0.0276 -0.0344 -0.0276 -0.0345 -0.0896 -0.0276 -0.11713 -0.0207 -0.0827 -0.0276 -0.0344 -0.0896 -0.0276 -0.11713 -0.0207 -0.0827 -0.0482 -0.0551 -0.0551 -0.0551 -0.0207 -0.0207 -0.2136 -0.0482 -0.0413 -0.0482 -0.0413 -0.0345 -0.0413 -0.0276 -0.12402 -0.0758 -0.0276 -0.0276 -0.0276 -0.0276 -0.11713 -0.0207 -0.0827 z" />
      <path
         id="path204"
         style="font-style:normal;font-variant:normal;font-weight:normal;font-stretch:normal;font-size:3.52778px;font-family:Transport;-inkscape-font-specification:Transport;fill:none;stroke:#000000;stroke-width:0.1;stroke-miterlimit:4;stroke-dasharray:none"
         d="m 44.184412,237.46686 q 0.232544,-0.009 0.303168,0.19292 0.0069,0.15848 -0.08957,0.25494 -0.268718,0.13091 -0.392741,-0.10335 -0.07063,-0.26355 0.179145,-0.34451 z m -0.130914,0.74414 h 0.08957 0.02756 0.02756 0.02756 0.117133 0.05512 0.04823 v 1.88102 h -0.02756 -0.08957 -0.02756 -0.02756 -0.02756 -0.117134 -0.02067 -0.08268 v -0.0207 -0.0344 -0.0207 -0.0276 -0.0207 -0.13781 -0.0482 -0.0276 -0.0344 -0.0276 -0.0344 -0.0896 -0.0276 -0.11714 -0.0207 -0.0827 -0.0482 -0.0482 -0.0413 -0.0482 -0.0413 -0.0482 -0.0413 -0.11713 -0.0413 -0.0344 -0.0413 -0.0276 -0.12402 -0.0758 -0.0276 -0.0276 -0.0276 -0.0276 -0.11714 -0.0207 -0.0827 z" />
    </g>
    <g
       style="font-style:normal;font-variant:normal;font-weight:normal;font-stretch:normal;font-size:3.52778px;line-height:1.25;font-family:Transport;-inkscape-font-specification:Transport;fill:none;fill-opacity:1;stroke:#000000;stroke-width:0.1;stroke-miterlimit:4;stroke-dasharray:none"
       id="text403-8"
       aria-label="LED Power"
       transform="translate(206.37499)">
      <path
         id="path207"
         style="font-style:normal;font-variant:normal;font-weight:normal;font-stretch:normal;font-size:3.52778px;font-family:Transport;-inkscape-font-specification:Transport;fill:none;stroke:#000000;stroke-width:0.1;stroke-miterlimit:4;stroke-dasharray:none"
         d="m 37.251235,244.86987 h 0.124023 0.02756 0.02756 0.02756 0.117134 0.05512 0.04823 v 2.22553 h 0.04823 0.02067 0.02067 0.08957 0.02067 0.02756 0.02067 0.03445 0.02067 0.02756 0.02067 0.137804 0.02756 0.02756 0.02067 0.124023 0.08957 0.02756 0.117133 0.02067 0.08268 v 0.40653 h -0.02067 -0.02756 -0.02067 -0.02756 -0.124023 -0.05512 -0.137804 -0.02067 -0.02067 -0.213596 -0.04823 -0.04134 -0.04823 -0.04134 -0.03445 -0.04134 -0.02756 -0.124024 -0.07579 -0.02756 -0.02756 -0.02756 -0.02756 -0.117133 -0.02067 -0.08268 v -0.0207 -0.0276 -0.0207 -0.0276 -0.12402 -0.0551 -0.0551 -0.0207 -0.13781 -0.0276 -0.0345 -0.0276 -0.0344 -0.0896 -0.0276 -0.11714 -0.0207 -0.0827 -0.0276 -0.0344 -0.0896 -0.0276 -0.11713 -0.0207 -0.0827 -0.0482 -0.0551 -0.0551 -0.0551 -0.0207 -0.0207 -0.2136 -0.0482 -0.0413 -0.0482 -0.0413 -0.0344 -0.0413 -0.0276 -0.12403 -0.0758 -0.0276 -0.0276 -0.0276 -0.0276 -0.11714 -0.0207 -0.0827 z" />
      <path
         id="path209"
         style="font-style:normal;font-variant:normal;font-weight:normal;font-stretch:normal;font-size:3.52778px;font-family:Transport;-inkscape-font-specification:Transport;fill:none;stroke:#000000;stroke-width:0.1;stroke-miterlimit:4;stroke-dasharray:none"
         d="m 39.261449,244.86987 h 0.04823 0.137804 0.05512 0.05512 0.05512 0.05512 0.137804 0.02067 0.02067 0.213596 0.04823 0.04134 0.04823 0.04134 0.03445 0.04134 0.02756 0.124023 0.07579 0.02756 0.02756 0.02756 0.02756 0.117133 0.02067 0.08268 v 0.41341 h -0.02067 -0.03445 -0.02067 -0.02756 -0.02067 -0.137804 -0.02756 -0.03445 -0.08957 -0.02756 -0.117133 -0.02067 -0.08268 -0.02756 -0.02756 -0.02067 -0.124024 -0.08957 -0.02756 -0.117133 -0.02067 -0.08268 v 0.66146 q 0.0034,0.0327 0.03445,0.0276 h 0.04823 0.04134 0.04823 0.04134 0.04823 0.04134 0.117134 0.04134 0.03445 0.04134 0.02756 0.124023 0.07579 0.02756 0.02756 0.02756 0.02756 0.117133 0.02067 0.08268 v 0.40652 h -0.04823 -0.04134 -0.117133 -0.02067 -0.08268 -0.08957 -0.02756 -0.117134 -0.02067 -0.08268 -0.07579 -0.03445 -0.08957 -0.02756 -0.117133 -0.02067 -0.08268 v 0.68902 q -0.0017,0.0362 0.02756,0.0345 h 0.02067 0.02067 0.137804 0.02067 0.02067 0.213596 0.04823 0.04134 0.04823 0.04134 0.03445 0.04134 0.02756 0.124023 0.07579 0.02756 0.02756 0.02756 0.02756 0.117133 0.02067 0.08268 v 0.40653 h -0.02067 -0.02756 -0.117134 -0.02067 -0.08268 -0.137804 -0.02756 -0.124024 -0.02067 -0.02067 -0.213596 -0.117133 -0.02067 -0.08268 -0.02756 -0.02067 -0.137804 -0.02756 -0.02067 -0.124024 -0.08957 -0.02756 -0.117133 -0.02067 -0.08268 v -0.0276 -0.12403 -0.0551 -0.0551 -0.0207 -0.0276 -0.12403 -0.0207 -0.1378 -0.0551 -0.0276 -0.12403 -0.0207 -0.0207 -0.21359 -0.0482 -0.0207 -0.0276 -0.12402 -0.0965 -0.0207 -0.0344 -0.0207 -0.0276 -0.0207 -0.1378 -0.11713 -0.0207 -0.0827 -0.0896 -0.0276 -0.11713 -0.0207 -0.0827 -0.0758 -0.0344 -0.0896 -0.0276 -0.11714 -0.0207 -0.0827 z" />
      <path
         id="path211"
         style="font-style:normal;font-variant:normal;font-weight:normal;font-stretch:normal;font-size:3.52778px;font-family:Transport;-inkscape-font-specification:Transport;fill:none;stroke:#000000;stroke-width:0.1;stroke-miterlimit:4;stroke-dasharray:none"
         d="m 41.74881,244.86987 h 0.03445 0.213597 0.04134 0.03445 0.02756 0.02067 0.137804 0.08957 0.03445 0.09646 0.03445 0.02756 0.02067 0.03445 0.07579 l 0.02067,0.007 h 0.02067 l 0.01378,-0.007 h 0.02756 l 0.02756,0.007 h 0.02067 l 0.110244,0.007 0.03445,0.007 0.02756,0.007 0.01378,0.007 0.05512,0.0138 0.103353,0.0344 0.0689,0.0413 0.02067,0.007 q 0.03617,0.019 0.05512,0.0345 0.01206,0.007 0.01378,0.0138 0.06201,0.0327 0.09646,0.062 0.539158,0.58394 0.427193,1.30914 -0.217042,1.14204 -1.295357,1.08176 h -0.02067 -0.03445 -0.02067 -0.02756 -0.02067 -0.137804 -0.213596 -0.09646 -0.02067 -0.03445 -0.02067 -0.02756 -0.02067 -0.137804 v -0.0207 -0.0276 -0.0207 -0.0276 -0.12402 -0.0551 -0.0551 -0.0207 -0.13781 -0.0276 -0.0345 -0.0276 -0.0344 -0.0896 -0.0276 -0.11714 -0.0207 -0.0827 -0.0276 -0.0344 -0.0896 -0.0276 -0.11713 -0.0207 -0.0827 -0.0482 -0.0551 -0.0551 -0.0551 -0.0207 -0.0207 -0.2136 -0.0482 -0.0413 -0.0482 -0.0413 -0.0344 -0.0413 -0.0276 -0.12403 -0.0758 -0.0276 -0.0276 -0.0276 -0.0276 -0.11714 -0.0207 -0.0827 z m 0.406521,2.22553 h 0.03445 0.09646 0.07579 0.02067 0.02067 0.02067 0.02067 0.02067 0.02067 0.02067 0.0689 0.02067 0.02756 0.02067 0.04823 l 0.02067,-0.007 h 0.02067 l 0.110244,-0.0138 0.05512,-0.0138 q 0.06029,-0.0362 0.110243,-0.0482 0.0069,-0.0121 0.01378,-0.0138 l 0.02067,-0.007 0.0069,-0.0138 0.02067,-0.007 0.0069,-0.0138 0.02067,-0.007 q 0.02239,-0.0327 0.04823,-0.0482 0.03445,-0.0465 0.0689,-0.0758 0.186035,-0.34279 0.179145,-0.68213 -0.02239,-0.55122 -0.420302,-0.80616 h -0.02067 q -0.06029,-0.0345 -0.110243,-0.0413 l -0.03445,-0.007 -0.08957,-0.0138 h -0.02756 -0.02067 -0.137804 -0.02067 -0.124023 -0.02067 -0.213596 z" />
      <path
         id="path213"
         style="font-style:normal;font-variant:normal;font-weight:normal;font-stretch:normal;font-size:3.52778px;font-family:Transport;-inkscape-font-specification:Transport;fill:none;stroke:#000000;stroke-width:0.1;stroke-miterlimit:4;stroke-dasharray:none"
         d="m 45.698614,244.86298 h 0.04823 0.04134 0.04823 0.04134 0.02067 0.08957 0.04134 0.03445 0.02756 0.02067 0.137804 0.02756 0.124023 0.09646 0.08268 0.117134 q 0.03617,0.009 0.06201,0.007 l 0.07579,0.0138 q 0.06373,0.0241 0.110243,0.0345 0.590834,0.30489 0.516764,0.92329 -0.194648,0.78548 -1.005968,0.7028 h -0.08957 -0.02756 -0.117134 -0.02067 -0.08268 v 0.95774 h -0.02756 -0.03445 -0.02756 -0.03445 -0.08957 -0.02756 -0.117134 -0.02067 -0.08268 v -0.0276 -0.12402 -0.0551 -0.0551 -0.0207 -0.0276 -0.12403 -0.0207 -0.1378 -0.0551 -0.0276 -0.12403 -0.0207 -0.0207 -0.21359 -0.0482 -0.0207 -0.0276 -0.12402 -0.0965 -0.0207 -0.0344 -0.0207 -0.0276 -0.0207 -0.1378 -0.11713 -0.0207 -0.0827 -0.0896 -0.0276 -0.11713 -0.0207 -0.0827 -0.0758 -0.0344 -0.0896 -0.0276 -0.11714 -0.0207 -0.0827 z m 0.413412,1.27469 h 0.02756 0.08957 0.07579 0.02067 0.02067 0.0689 0.02067 0.02067 0.02067 0.05512 q 0.06373,-0.002 0.110243,0.007 0.0069,-0.009 0.01378,-0.007 l 0.04823,-0.007 0.04134,-0.007 q 0.389296,-0.20154 0.254937,-0.59256 -0.08096,-0.13953 -0.199815,-0.2136 -0.06201,-0.0138 -0.103353,-0.0345 h -0.03445 l -0.04134,-0.007 h -0.02756 -0.02067 -0.124023 -0.08957 -0.02756 -0.117133 -0.02067 -0.08268 z" />
      <path
         id="path215"
         style="font-style:normal;font-variant:normal;font-weight:normal;font-stretch:normal;font-size:3.52778px;font-family:Transport;-inkscape-font-specification:Transport;fill:none;stroke:#000000;stroke-width:0.1;stroke-miterlimit:4;stroke-dasharray:none"
         d="m 48.606276,245.552 q 0.602893,-0.0258 0.895726,0.44097 0.191203,0.4582 0.07579,0.88884 -0.118856,0.51332 -0.599447,0.64079 -0.418579,0.10507 -0.737251,-0.10336 -0.396186,-0.2756 -0.420302,-0.73725 -0.04479,-0.94395 0.785482,-1.12999 z m 0.07579,0.40652 q -0.485759,0.1223 -0.434083,0.68902 0.05684,0.46164 0.468534,0.50299 0.422024,-0.0379 0.468533,-0.44098 0.103353,-0.70796 -0.502984,-0.75103 z" />
      <path
         id="path217"
         style="font-style:normal;font-variant:normal;font-weight:normal;font-stretch:normal;font-size:3.52778px;font-family:Transport;-inkscape-font-specification:Transport;fill:none;stroke:#000000;stroke-width:0.1;stroke-miterlimit:4;stroke-dasharray:none"
         d="m 49.956755,245.62779 h 0.02756 0.03445 0.08957 0.02756 0.117133 0.02067 0.08268 l 0.0069,0.0413 q 0.02412,0.0637 0.02756,0.11025 0.02067,0.0568 0.02067,0.0965 l 0.0069,0.0276 q 0.0069,0.0103 0.0069,0.0207 l 0.01378,0.0551 0.02756,0.11025 0.0069,0.0344 0.0069,0.0345 0.01378,0.0344 v 0.0207 q 0.02412,0.0655 0.02756,0.11713 l 0.0069,0.0344 q 0.02756,0.0637 0.02756,0.11714 l 0.0069,0.0276 0.01378,0.0276 0.0069,0.0482 q 0.0155,0.0396 0.01378,0.0689 l 0.01378,0.0551 q 0.0086,0.007 0.0069,0.0138 l 0.03445,0.15848 0.0069,-0.0138 0.01378,-0.0413 q 0.0086,-0.0517 0.02067,-0.0827 l 0.0069,-0.0482 q 0.0086,-0.0465 0.02067,-0.0758 0.0017,-0.0396 0.01378,-0.0689 v -0.0207 l 0.0069,-0.0138 0.02067,-0.10336 0.01378,-0.0413 0.0069,-0.0413 q 0.01723,-0.0568 0.02067,-0.0965 l 0.01378,-0.0276 v -0.0344 l 0.0069,-0.0276 0.02756,-0.0896 v -0.0276 q 0.01723,-0.0517 0.02067,-0.0896 0.01723,-0.0568 0.02067,-0.0965 l 0.0069,-0.0207 0.0069,-0.0344 0.0069,-0.0207 0.02756,-0.13092 0.04134,-0.007 h 0.02756 0.02756 0.03445 0.08957 0.02756 0.117133 0.05512 0.04823 l 0.01378,0.0482 v 0.0207 l 0.03445,0.12403 0.01378,0.0827 0.02067,0.0689 0.0069,0.0413 0.0069,0.0413 q 0.02239,0.0655 0.02756,0.11025 l 0.0069,0.0413 q 0.0069,0.0103 0.0069,0.0207 l 0.0069,0.0276 0.04134,0.17226 0.0069,0.0276 v 0.0276 l 0.01378,0.0413 0.0069,0.0482 0.03445,0.11713 0.0069,0.0344 0.02067,0.11025 q 0.01033,0.0258 0.02067,0.0413 l 0.01378,-0.0551 v -0.0207 l 0.0069,-0.0207 0.02756,-0.13092 0.01378,-0.0482 0.0069,-0.0413 0.0069,-0.0207 0.0069,-0.0138 q 0.0086,-0.0517 0.02067,-0.0827 v -0.0207 l 0.01378,-0.0482 0.02756,-0.12402 0.01378,-0.0276 v -0.0344 l 0.01378,-0.0276 0.0069,-0.0413 0.0069,-0.0344 0.0069,-0.0207 0.02756,-0.13091 0.0069,-0.0138 0.02067,-0.0827 0.0069,-0.0207 v -0.0276 l 0.02756,-0.0827 q 0.0017,-0.0413 0.01378,-0.0758 h 0.03445 0.02756 0.03445 0.08957 0.02756 0.117133 0.02067 0.08268 l -0.0069,0.0207 -0.0069,0.0207 -0.0069,0.0482 -0.0069,0.0138 -0.04134,0.15847 -0.0069,0.0276 -0.0069,0.0138 -0.02756,0.11024 -0.0069,0.0276 -0.0069,0.0207 -0.0069,0.0207 -0.04134,0.15847 -0.01378,0.0482 -0.02067,0.0482 -0.0069,0.0482 -0.01378,0.0551 -0.0069,0.0138 -0.01378,0.0413 -0.02067,0.0827 -0.0069,0.0276 -0.01378,0.0551 -0.0069,0.0207 -0.0069,0.0138 -0.04134,0.15848 -0.0069,0.0207 q -0.01895,0.0827 -0.04134,0.13091 l -0.0069,0.0276 -0.0069,0.0482 -0.0069,0.0207 -0.0069,0.0207 -0.03445,0.12402 -0.01378,0.0551 -0.0069,0.0138 -0.04134,0.15848 h -0.02756 -0.117134 -0.07579 -0.02756 -0.117134 -0.02067 -0.08268 l -0.01378,-0.0482 -0.0069,-0.0551 -0.0069,-0.0207 v -0.0207 q -0.01895,-0.0396 -0.02067,-0.0827 -0.01895,-0.0534 -0.02067,-0.10335 l -0.01378,-0.0413 v -0.0207 q -0.02584,-0.062 -0.02756,-0.11713 l -0.0069,-0.0344 -0.01378,-0.0413 -0.0069,-0.0482 -0.01378,-0.0413 -0.0069,-0.0276 v -0.0276 q -0.02584,-0.062 -0.02756,-0.11714 l -0.02067,-0.0689 v -0.0276 q -0.0155,-0.0396 -0.02067,-0.0689 -0.01033,-0.0706 -0.02756,-0.11714 -0.0069,-0.0603 -0.02756,-0.10335 -0.01206,0.0947 -0.02756,0.15159 l -0.02067,0.0965 -0.01378,0.0551 -0.02756,0.14469 -0.01378,0.0344 -0.0069,0.0482 -0.02067,0.0965 -0.0069,0.0413 -0.01378,0.0276 -0.0069,0.0344 q -0.0052,0.0517 -0.01378,0.0827 l -0.01378,0.0689 -0.0069,0.0276 -0.0069,0.0344 -0.0069,0.0207 -0.0069,0.0482 -0.0069,0.0207 -0.01378,0.0482 v 0.0207 q -0.01034,0.0396 -0.01378,0.0689 -0.01206,0.0344 -0.01378,0.062 h -0.02756 -0.117133 -0.07579 -0.02756 -0.117134 -0.02067 -0.08268 q -0.02584,-0.081 -0.03445,-0.13781 -0.01723,-0.0327 -0.02067,-0.0551 v -0.0207 q -0.0086,-0.007 -0.0069,-0.0138 l -0.03445,-0.11024 q -0.0155,-0.0741 -0.03445,-0.12403 l -0.0069,-0.0482 q -0.01895,-0.0396 -0.02067,-0.0758 -0.0086,-0.007 -0.0069,-0.0138 -0.02412,-0.0637 -0.02756,-0.10335 l -0.01378,-0.0482 -0.01378,-0.0482 -0.0069,-0.0345 q -0.0069,-0.0103 -0.0069,-0.0207 -0.01723,-0.0327 -0.02067,-0.0551 v -0.0207 q -0.0086,-0.007 -0.0069,-0.0138 l -0.03445,-0.11024 q -0.01378,-0.0775 -0.03445,-0.13092 l -0.0069,-0.0413 -0.01378,-0.0345 -0.0069,-0.0344 -0.0069,-0.0138 v -0.0207 q -0.02067,-0.0379 -0.02067,-0.0689 l -0.01378,-0.0276 -0.0069,-0.0345 -0.02067,-0.0758 -0.0069,-0.0276 -0.0069,-0.0207 -0.0069,-0.0413 q -0.0069,-0.0103 -0.0069,-0.0207 l -0.0069,-0.0207 -0.02067,-0.0551 v -0.0207 q -0.02928,-0.0775 -0.03445,-0.13092 z" />
      <path
         id="path219"
         style="font-style:normal;font-variant:normal;font-weight:normal;font-stretch:normal;font-size:3.52778px;font-family:Transport;-inkscape-font-specification:Transport;fill:none;stroke:#000000;stroke-width:0.1;stroke-miterlimit:4;stroke-dasharray:none"
         d="m 53.55516,245.57956 q 0.80443,0.0293 0.888835,0.81304 l 0.0069,0.10336 q 0.0069,0.0103 0.0069,0.0207 v 0.2067 h -0.05512 -0.137804 -0.02067 -0.02067 -0.213596 -0.04823 -0.04134 -0.04823 -0.04134 -0.03445 -0.04134 -0.02756 -0.124024 -0.07579 -0.02756 -0.02756 -0.02756 -0.02756 -0.117133 -0.02067 -0.08268 q 0.0379,0.3514 0.35829,0.41342 0.323839,0.0396 0.544325,-0.16537 0.02412,0.0379 0.05512,0.062 l 0.0069,0.0207 0.02067,0.0207 q 0.04651,0.0431 0.0689,0.0827 0.01206,0.007 0.01378,0.0138 l 0.09646,0.11024 q -0.442695,0.36862 -0.957738,0.24116 -0.596001,-0.1981 -0.654568,-0.85439 -0.03101,-0.95946 0.806153,-1.08865 z m 0.02067,0.37896 q -0.366903,0.0879 -0.385851,0.44097 h 0.04134 0.117133 0.04134 0.03445 0.04134 0.02756 0.124024 0.07579 0.02756 0.02756 0.02756 0.02756 0.117133 0.05512 0.04823 v -0.0207 q -0.01034,-0.0276 -0.0069,-0.0551 -0.01723,-0.0396 -0.02067,-0.0689 -0.125746,-0.29283 -0.420302,-0.29628 z" />
      <path
         id="path221"
         style="font-style:normal;font-variant:normal;font-weight:normal;font-stretch:normal;font-size:3.52778px;font-family:Transport;-inkscape-font-specification:Transport;fill:none;stroke:#000000;stroke-width:0.1;stroke-miterlimit:4;stroke-dasharray:none"
         d="m 55.889213,245.57956 v 0.44097 q -0.387574,-0.0258 -0.551216,0.2825 l -0.02067,0.11024 -0.0069,0.0482 v 1.03353 h -0.02756 -0.08957 -0.02756 -0.02756 -0.02756 -0.117134 -0.02067 -0.08268 v -0.0207 -0.0344 -0.0207 -0.0276 -0.0207 -0.1378 -0.0482 -0.13781 -0.0551 -0.0551 -0.0551 -0.0551 -0.13781 -0.0207 -0.0207 -0.21359 -0.0482 -0.0413 -0.0482 -0.0413 -0.0344 -0.0413 -0.0276 -0.12403 -0.0758 -0.0276 -0.0276 -0.0276 -0.0276 -0.11713 -0.0207 -0.0827 h 0.02756 0.08957 0.02756 0.02756 0.02756 0.117134 0.02067 0.08268 v 0.0758 q -0.0034,0.0637 0.0069,0.11025 0.199815,-0.22738 0.482313,-0.22738 z" />
    </g>
    <g
       style="font-style:normal;font-variant:normal;font-weight:normal;font-stretch:normal;font-size:3.52778px;line-height:1.25;font-family:Transport;-inkscape-font-specification:Transport;fill:none;fill-opacity:1;stroke:#000000;stroke-width:0.1;stroke-miterlimit:4;stroke-dasharray:none"
       id="text403-7"
       aria-label="Network"
       transform="translate(206.37499)">
      <path
         id="path224"
         style="font-style:normal;font-variant:normal;font-weight:normal;font-stretch:normal;font-size:3.52778px;font-family:Transport;-inkscape-font-specification:Transport;fill:none;stroke:#000000;stroke-width:0.1;stroke-miterlimit:4;stroke-dasharray:none"
         d="m 37.244781,252.78719 h 0.02067 0.124023 0.08957 0.02756 0.117134 0.02067 0.08268 l 0.02756,0.0482 0.01378,0.0138 0.02756,0.0482 q 0.02928,0.0396 0.04134,0.0689 l 0.01378,0.007 0.0069,0.0138 0.06201,0.0965 0.02756,0.0413 0.02756,0.0413 q 0.0086,0.007 0.0069,0.0138 0.04995,0.0534 0.0689,0.10335 0.04651,0.0517 0.0689,0.0965 l 0.02756,0.0344 0.02067,0.0413 0.01378,0.0207 0.01378,0.0138 0.02756,0.0482 0.01378,0.0138 0.04823,0.0758 0.02756,0.0413 0.02756,0.0413 0.04823,0.0689 0.01378,0.0138 0.01378,0.0207 0.0069,0.0207 0.01378,0.0207 0.01378,0.0138 0.02756,0.0482 0.01378,0.0138 0.04823,0.0758 0.0069,0.0138 0.01378,0.0207 q 0.0086,0.007 0.0069,0.0138 0.03445,0.0379 0.05512,0.0689 l 0.02067,0.0345 0.01378,0.0276 q 0.03617,0.0379 0.04823,0.0758 l 0.02756,0.0413 q 0.02239,0.0172 0.03445,0.0413 l 0.02756,0.0413 q 0.03273,0.0482 0.04823,0.0827 0.01034,0.009 0.01378,0.0207 l 0.02067,0.0138 0.0069,0.0207 0.01378,0.0138 0.01378,0.0207 0.0069,0.0207 q 0.05168,0.0586 0.07579,0.10335 v -0.0207 -0.0207 -0.0207 -0.0896 -0.0965 -0.0207 -0.0344 -0.0207 -0.0276 -0.0207 -0.1378 -0.0551 -0.0551 -0.0965 -0.0207 -0.0344 -0.0207 -0.0276 -0.0207 -0.1378 -0.11714 -0.0207 -0.0827 -0.0276 -0.0207 -0.13781 -0.0276 -0.0207 -0.12402 -0.0896 -0.0276 -0.11714 -0.0207 -0.0827 h 0.02756 0.124024 0.02756 0.02756 0.02756 0.117134 0.05512 0.04823 v 2.63895 h -0.02756 -0.02067 -0.124023 -0.08957 -0.02756 -0.117133 -0.02067 -0.08268 l -0.02756,-0.0482 -0.01378,-0.0138 -0.0069,-0.0207 q -0.05168,-0.0586 -0.07579,-0.10335 l -0.0069,-0.0138 q -0.05168,-0.0689 -0.07579,-0.11713 l -0.03445,-0.0413 -0.0689,-0.10336 -0.0069,-0.0138 -0.01378,-0.0138 -0.02756,-0.0482 q -0.02928,-0.0396 -0.04134,-0.0689 -0.03445,-0.0344 -0.04823,-0.062 -0.02412,-0.0362 -0.03445,-0.062 -0.01206,-0.007 -0.01378,-0.0138 l -0.01378,-0.0138 -0.0069,-0.0207 -0.01378,-0.0138 -0.0069,-0.0207 q -0.03617,-0.0362 -0.05512,-0.0689 l -0.08957,-0.13091 -0.01378,-0.0344 q -0.04134,-0.0396 -0.05512,-0.0827 -0.04995,-0.0534 -0.0689,-0.10335 l -0.02756,-0.0276 -0.01378,-0.0345 -0.03445,-0.0344 -0.02067,-0.0413 -0.02067,-0.0276 q -0.02928,-0.0396 -0.04134,-0.0689 l -0.02756,-0.0413 q -0.01206,-0.007 -0.01378,-0.0138 l -0.04823,-0.0689 q -0.03273,-0.0482 -0.04823,-0.0827 l -0.02067,-0.0207 -0.0069,-0.0207 -0.02067,-0.0207 -0.0069,-0.0207 q -0.01206,-0.007 -0.01378,-0.0138 -0.0086,-0.007 -0.0069,-0.0138 -0.05168,-0.0586 -0.07579,-0.10335 v 1.88792 h -0.02756 -0.124023 -0.02756 -0.02756 -0.02756 -0.117133 -0.02067 -0.08268 v -0.0276 -0.12402 -0.0551 -0.0551 -0.0207 -0.0276 -0.12403 -0.0207 -0.1378 -0.0551 -0.0276 -0.12403 -0.0207 -0.0207 -0.21359 -0.0482 -0.0207 -0.0276 -0.12402 -0.0965 -0.0207 -0.0345 -0.0207 -0.0276 -0.0207 -0.1378 -0.11713 -0.0207 -0.0827 -0.0896 -0.0276 -0.11713 -0.0207 -0.0827 -0.0758 -0.0344 -0.0896 -0.0276 -0.11714 -0.0207 -0.0827 z" />
      <path
         id="path226"
         style="font-style:normal;font-variant:normal;font-weight:normal;font-stretch:normal;font-size:3.52778px;font-family:Transport;-inkscape-font-specification:Transport;fill:none;stroke:#000000;stroke-width:0.1;stroke-miterlimit:4;stroke-dasharray:none"
         d="m 40.870746,253.50377 q 0.804431,0.0293 0.888836,0.81304 l 0.0069,0.10336 q 0.0069,0.0103 0.0069,0.0207 v 0.2067 h -0.05512 -0.137804 -0.02067 -0.02067 -0.213596 -0.04823 -0.04134 -0.04823 -0.04134 -0.03445 -0.04134 -0.02756 -0.124023 -0.07579 -0.02756 -0.02756 -0.02756 -0.02756 -0.117133 -0.02067 -0.08268 q 0.0379,0.3514 0.35829,0.41341 0.32384,0.0396 0.544326,-0.16536 0.02411,0.0379 0.05512,0.062 l 0.0069,0.0207 0.02067,0.0207 q 0.04651,0.0431 0.0689,0.0827 0.01206,0.007 0.01378,0.0138 l 0.09646,0.11024 q -0.442695,0.36862 -0.957737,0.24116 -0.596002,-0.1981 -0.654569,-0.85439 -0.03101,-0.95946 0.806153,-1.08865 z m 0.02067,0.37896 q -0.366903,0.0879 -0.385851,0.44097 h 0.04134 0.117133 0.04134 0.03445 0.04134 0.02756 0.124023 0.07579 0.02756 0.02756 0.02756 0.02756 0.117134 0.05512 0.04823 v -0.0207 q -0.01034,-0.0276 -0.0069,-0.0551 -0.01722,-0.0396 -0.02067,-0.0689 -0.125746,-0.29283 -0.420302,-0.29628 z" />
      <path
         id="path228"
         style="font-style:normal;font-variant:normal;font-weight:normal;font-stretch:normal;font-size:3.52778px;font-family:Transport;-inkscape-font-specification:Transport;fill:none;stroke:#000000;stroke-width:0.1;stroke-miterlimit:4;stroke-dasharray:none"
         d="m 42.770718,252.79408 q 0.01378,0.0155 0.01378,0.0344 v 0.71658 h 0.03445 0.02756 0.03445 0.02756 0.03445 0.08957 0.02756 0.117133 0.05512 0.04823 v 0.35829 h -0.03445 -0.02756 -0.03445 -0.02756 -0.03445 -0.08957 -0.02756 -0.117133 -0.02067 -0.08268 v 0.92329 q -0.0034,0.0913 0.0069,0.15158 0.163642,0.14986 0.440973,0.0482 l 0.0069,0.0207 v 0.0413 q 0.01033,0.0413 0.0069,0.0758 0.01206,0.0396 0.01378,0.0689 l 0.02067,0.17225 q -0.640788,0.1602 -0.861274,-0.16536 l -0.0069,-0.0138 -0.01378,-0.0413 q -0.02067,-0.0482 -0.02756,-0.0827 v -0.0207 q -0.01033,-0.093 -0.0069,-0.15159 v -0.1378 -0.0413 -0.0207 -0.0276 -0.0207 -0.0345 -0.0207 -0.0276 -0.0207 -0.1378 -0.0276 -0.0276 -0.0207 -0.12403 -0.0896 -0.0276 -0.11713 -0.0207 -0.0827 h -0.02756 -0.02756 -0.02756 -0.02756 -0.117133 -0.02067 -0.08268 v -0.0965 -0.0207 -0.0344 -0.0207 -0.0276 -0.0207 -0.13781 h 0.02756 0.02756 0.02756 0.02756 0.117133 0.05512 0.04823 v -0.0413 -0.0276 -0.12402 -0.0758 -0.0276 -0.0276 -0.0276 -0.0276 -0.11713 -0.0207 -0.0827 l 0.02756,-0.0138 0.02756,-0.007 0.02756,-0.007 0.02067,-0.0138 0.03445,-0.007 q 0.01033,-0.007 0.02067,-0.007 0.01033,-0.007 0.02067,-0.007 0.01034,-0.007 0.02067,-0.007 l 0.02067,-0.0138 0.05512,-0.0138 q 0.0069,-0.009 0.01378,-0.007 0.0069,-0.009 0.01378,-0.007 z" />
      <path
         id="path230"
         style="font-style:normal;font-variant:normal;font-weight:normal;font-stretch:normal;font-size:3.52778px;font-family:Transport;-inkscape-font-specification:Transport;fill:none;stroke:#000000;stroke-width:0.1;stroke-miterlimit:4;stroke-dasharray:none"
         d="m 43.5562,253.552 h 0.02756 0.03445 0.08957 0.02756 0.117134 0.02067 0.08268 l 0.0069,0.0413 q 0.02412,0.0637 0.02756,0.11025 0.02067,0.0568 0.02067,0.0965 l 0.0069,0.0276 q 0.0069,0.0103 0.0069,0.0207 l 0.01378,0.0551 0.02756,0.11025 0.0069,0.0344 0.0069,0.0344 0.01378,0.0344 v 0.0207 q 0.02412,0.0655 0.02756,0.11713 l 0.0069,0.0345 q 0.02756,0.0637 0.02756,0.11714 l 0.0069,0.0276 0.01378,0.0276 0.0069,0.0482 q 0.0155,0.0396 0.01378,0.0689 l 0.01378,0.0551 q 0.0086,0.007 0.0069,0.0138 l 0.03445,0.15848 0.0069,-0.0138 0.01378,-0.0413 q 0.0086,-0.0517 0.02067,-0.0827 l 0.0069,-0.0482 q 0.0086,-0.0465 0.02067,-0.0758 0.0017,-0.0396 0.01378,-0.0689 v -0.0207 l 0.0069,-0.0138 0.02067,-0.10336 0.01378,-0.0413 0.0069,-0.0413 q 0.01723,-0.0568 0.02067,-0.0965 l 0.01378,-0.0276 v -0.0344 l 0.0069,-0.0276 0.02756,-0.0896 v -0.0276 q 0.01722,-0.0517 0.02067,-0.0896 0.01723,-0.0568 0.02067,-0.0965 l 0.0069,-0.0207 0.0069,-0.0345 0.0069,-0.0207 0.02756,-0.13092 0.04134,-0.007 h 0.02756 0.02756 0.03445 0.08957 0.02756 0.117134 0.05512 0.04823 l 0.01378,0.0482 v 0.0207 l 0.03445,0.12403 0.01378,0.0827 0.02067,0.0689 0.0069,0.0413 0.0069,0.0413 q 0.02239,0.0655 0.02756,0.11025 l 0.0069,0.0413 q 0.0069,0.0103 0.0069,0.0207 l 0.0069,0.0276 0.04134,0.17225 0.0069,0.0276 v 0.0276 l 0.01378,0.0413 0.0069,0.0482 0.03445,0.11713 0.0069,0.0344 0.02067,0.11025 q 0.01034,0.0258 0.02067,0.0413 l 0.01378,-0.0551 v -0.0207 l 0.0069,-0.0207 0.02756,-0.13091 0.01378,-0.0482 0.0069,-0.0413 0.0069,-0.0207 0.0069,-0.0138 q 0.0086,-0.0517 0.02067,-0.0827 v -0.0207 l 0.01378,-0.0482 0.02756,-0.12402 0.01378,-0.0276 v -0.0345 l 0.01378,-0.0276 0.0069,-0.0413 0.0069,-0.0344 0.0069,-0.0207 0.02756,-0.13091 0.0069,-0.0138 0.02067,-0.0827 0.0069,-0.0207 v -0.0276 l 0.02756,-0.0827 q 0.0017,-0.0413 0.01378,-0.0758 h 0.03445 0.02756 0.03445 0.08957 0.02756 0.117134 0.02067 0.08268 l -0.0069,0.0207 -0.0069,0.0207 -0.0069,0.0482 -0.0069,0.0138 -0.04134,0.15847 -0.0069,0.0276 -0.0069,0.0138 -0.02756,0.11024 -0.0069,0.0276 -0.0069,0.0207 -0.0069,0.0207 -0.04134,0.15847 -0.01378,0.0482 -0.02067,0.0482 -0.0069,0.0482 -0.01378,0.0551 -0.0069,0.0138 -0.01378,0.0413 -0.02067,0.0827 -0.0069,0.0276 -0.01378,0.0551 -0.0069,0.0207 -0.0069,0.0138 -0.04134,0.15848 -0.0069,0.0207 q -0.01895,0.0827 -0.04134,0.13091 l -0.0069,0.0276 -0.0069,0.0482 -0.0069,0.0207 -0.0069,0.0207 -0.03445,0.12402 -0.01378,0.0551 -0.0069,0.0138 -0.04134,0.15848 h -0.02756 -0.117133 -0.07579 -0.02756 -0.117133 -0.02067 -0.08268 l -0.01378,-0.0482 -0.0069,-0.0551 -0.0069,-0.0207 v -0.0207 q -0.01895,-0.0396 -0.02067,-0.0827 -0.01895,-0.0534 -0.02067,-0.10335 l -0.01378,-0.0413 v -0.0207 q -0.02584,-0.062 -0.02756,-0.11713 l -0.0069,-0.0344 -0.01378,-0.0413 -0.0069,-0.0482 -0.01378,-0.0413 -0.0069,-0.0276 v -0.0276 q -0.02584,-0.062 -0.02756,-0.11713 l -0.02067,-0.0689 v -0.0276 q -0.0155,-0.0396 -0.02067,-0.0689 -0.01033,-0.0706 -0.02756,-0.11714 -0.0069,-0.0603 -0.02756,-0.10335 -0.01206,0.0947 -0.02756,0.15158 l -0.02067,0.0965 -0.01378,0.0551 -0.02756,0.14469 -0.01378,0.0344 -0.0069,0.0482 -0.02067,0.0965 -0.0069,0.0413 -0.01378,0.0276 -0.0069,0.0344 q -0.0052,0.0517 -0.01378,0.0827 l -0.01378,0.0689 -0.0069,0.0276 -0.0069,0.0344 -0.0069,0.0207 -0.0069,0.0482 -0.0069,0.0207 -0.01378,0.0482 v 0.0207 q -0.01033,0.0396 -0.01378,0.0689 -0.01206,0.0344 -0.01378,0.062 h -0.02756 -0.117133 -0.07579 -0.02756 -0.117133 -0.02067 -0.08268 q -0.02584,-0.081 -0.03445,-0.13781 -0.01723,-0.0327 -0.02067,-0.0551 v -0.0207 q -0.0086,-0.007 -0.0069,-0.0138 l -0.03445,-0.11024 q -0.0155,-0.0741 -0.03445,-0.12403 l -0.0069,-0.0482 q -0.01895,-0.0396 -0.02067,-0.0758 -0.0086,-0.007 -0.0069,-0.0138 -0.02411,-0.0637 -0.02756,-0.10335 l -0.01378,-0.0482 -0.01378,-0.0482 -0.0069,-0.0344 q -0.0069,-0.0103 -0.0069,-0.0207 -0.01722,-0.0327 -0.02067,-0.0551 v -0.0207 q -0.0086,-0.007 -0.0069,-0.0138 l -0.03445,-0.11024 q -0.01378,-0.0775 -0.03445,-0.13092 l -0.0069,-0.0413 -0.01378,-0.0344 -0.0069,-0.0345 -0.0069,-0.0138 v -0.0207 q -0.02067,-0.0379 -0.02067,-0.0689 l -0.01378,-0.0276 -0.0069,-0.0345 -0.02067,-0.0758 -0.0069,-0.0276 -0.0069,-0.0207 -0.0069,-0.0413 q -0.0069,-0.0103 -0.0069,-0.0207 l -0.0069,-0.0207 -0.02067,-0.0551 v -0.0207 q -0.02928,-0.0775 -0.03445,-0.13092 z" />
      <path
         id="path232"
         style="font-style:normal;font-variant:normal;font-weight:normal;font-stretch:normal;font-size:3.52778px;font-family:Transport;-inkscape-font-specification:Transport;fill:none;stroke:#000000;stroke-width:0.1;stroke-miterlimit:4;stroke-dasharray:none"
         d="m 47.159772,253.47621 q 0.602892,-0.0258 0.895725,0.44097 0.191203,0.4582 0.07579,0.88884 -0.118856,0.51332 -0.599447,0.64079 -0.418579,0.10507 -0.737251,-0.10336 -0.396186,-0.2756 -0.420301,-0.73725 -0.04479,-0.94395 0.785482,-1.12999 z m 0.07579,0.40652 q -0.485759,0.1223 -0.434082,0.68902 0.05684,0.46164 0.468533,0.50299 0.422024,-0.0379 0.468533,-0.44098 0.103353,-0.70796 -0.502984,-0.75103 z" />
      <path
         id="path234"
         style="font-style:normal;font-variant:normal;font-weight:normal;font-stretch:normal;font-size:3.52778px;font-family:Transport;-inkscape-font-specification:Transport;fill:none;stroke:#000000;stroke-width:0.1;stroke-miterlimit:4;stroke-dasharray:none"
         d="m 49.667803,253.50377 v 0.44097 q -0.387573,-0.0258 -0.551216,0.2825 l -0.02067,0.11024 -0.0069,0.0482 v 1.03353 h -0.02756 -0.08957 -0.02756 -0.02756 -0.02756 -0.117133 -0.02067 -0.08268 v -0.0207 -0.0344 -0.0207 -0.0276 -0.0207 -0.1378 -0.0482 -0.13781 -0.0551 -0.0551 -0.0551 -0.0551 -0.13781 -0.0207 -0.0207 -0.21359 -0.0482 -0.0413 -0.0482 -0.0413 -0.0344 -0.0413 -0.0276 -0.12403 -0.0758 -0.0276 -0.0276 -0.0276 -0.0276 -0.11714 -0.0207 -0.0827 h 0.02756 0.08957 0.02756 0.02756 0.02756 0.117134 0.02067 0.08268 v 0.0758 q -0.0034,0.0637 0.0069,0.11025 0.199816,-0.22738 0.482314,-0.22738 z" />
      <path
         id="path236"
         style="font-style:normal;font-variant:normal;font-weight:normal;font-stretch:normal;font-size:3.52778px;font-family:Transport;-inkscape-font-specification:Transport;fill:none;stroke:#000000;stroke-width:0.1;stroke-miterlimit:4;stroke-dasharray:none"
         d="m 50.143227,252.79408 h 0.08957 0.02756 0.02756 0.02756 0.117133 0.02067 0.08268 v 1.4745 l 0.03445,-0.0276 0.02756,-0.0344 0.01378,-0.0138 0.01378,-0.0138 0.01378,-0.0138 0.01378,-0.007 q 0.0069,-0.0121 0.01378,-0.0138 l 0.07579,-0.0827 0.02067,-0.0276 0.0689,-0.062 q 0.03445,-0.0465 0.0689,-0.0689 l 0.02067,-0.0207 0.02067,-0.0207 q 0.02239,-0.0327 0.04823,-0.0482 l 0.02067,-0.0207 0.02067,-0.0207 0.01378,-0.0207 0.02067,-0.0138 0.01378,-0.0207 0.01378,-0.0138 0.02067,-0.0138 0.0069,-0.0138 q 0.03273,-0.0431 0.06201,-0.0689 l 0.01378,-0.007 q 0.02584,-0.0345 0.04823,-0.0551 h 0.02067 0.08957 0.117133 0.07579 0.02756 0.117134 0.02067 0.08268 l -0.0069,0.0138 -0.01378,0.0138 -0.01378,0.007 -0.0069,0.0138 -0.01378,0.007 q -0.02584,0.0344 -0.04823,0.0551 l -0.03445,0.0276 -0.02067,0.0344 -0.01378,0.007 q -0.0069,0.0121 -0.01378,0.0138 -0.0534,0.0672 -0.103353,0.10335 -0.0069,0.0121 -0.01378,0.0138 -0.04995,0.0637 -0.09646,0.0965 l -0.02067,0.0276 -0.04823,0.0414 -0.02067,0.0276 -0.02067,0.0207 -0.01378,0.0138 -0.02756,0.0207 -0.01378,0.0207 -0.02067,0.0138 -0.0069,0.0138 -0.02067,0.0138 -0.03445,0.0344 -0.0069,0.0138 -0.01378,0.007 q -0.03445,0.0465 -0.0689,0.0689 l 0.02067,0.0482 0.02756,0.0413 0.02067,0.0207 0.0069,0.0138 q 0.02412,0.031 0.03445,0.0551 l 0.02067,0.0207 0.0069,0.0207 q 0.0086,0.007 0.0069,0.0138 0.04995,0.0534 0.0689,0.10335 0.04995,0.0534 0.0689,0.10336 l 0.02756,0.0276 0.01378,0.0344 0.02756,0.0276 q 0.02928,0.0517 0.05512,0.0827 l 0.02067,0.0276 0.02067,0.0345 0.02067,0.0276 0.01378,0.0276 0.02067,0.0276 0.01378,0.0207 0.01378,0.0207 0.01378,0.0207 0.05512,0.0827 0.01378,0.0207 0.0069,0.0207 0.01378,0.007 0.01378,0.0207 q 0.06546,0.0965 0.09646,0.16537 h -0.02756 -0.124024 -0.02756 -0.02756 -0.02756 -0.117133 -0.02067 -0.08268 l -0.02067,-0.0413 q -0.0086,-0.007 -0.0069,-0.0138 -0.05168,-0.0586 -0.07579,-0.10335 l -0.02067,-0.0276 -0.02067,-0.0345 q -0.03273,-0.0482 -0.04823,-0.0827 l -0.02067,-0.0207 -0.02067,-0.0276 -0.01378,-0.0276 -0.02067,-0.0276 -0.02067,-0.0344 q -0.04479,-0.0534 -0.06201,-0.0965 l -0.02067,-0.0276 q -0.02584,-0.0276 -0.03445,-0.0551 l -0.02067,-0.0207 -0.02756,-0.0482 -0.01378,-0.0207 -0.02756,-0.0414 -0.01378,-0.0207 q -0.0086,-0.007 -0.0069,-0.0138 -0.03445,-0.0379 -0.05512,-0.0689 -0.0069,0.0121 -0.01378,0.0138 l -0.01378,0.0276 -0.06201,0.0551 q -0.0069,0.0121 -0.01378,0.0138 l -0.0069,0.0138 -0.04134,0.0345 q -0.03962,0.062 -0.08957,0.0965 v 0.59945 h -0.02756 -0.08957 -0.02756 -0.02756 -0.02756 -0.117133 -0.02067 -0.08268 v -0.0207 -0.0276 -0.0207 -0.0276 -0.12402 -0.0551 -0.0551 -0.0207 -0.13781 -0.0276 -0.0344 -0.0276 -0.0345 -0.0896 -0.0276 -0.11713 -0.0207 -0.0827 -0.0276 -0.0345 -0.0896 -0.0276 -0.11713 -0.0207 -0.0827 -0.0482 -0.0551 -0.0551 -0.0551 -0.0207 -0.0207 -0.2136 -0.0482 -0.0413 -0.0482 -0.0413 -0.0344 -0.0413 -0.0276 -0.12403 -0.0758 -0.0276 -0.0276 -0.0276 -0.0276 -0.11714 -0.0207 -0.0827 z" />
    </g>
    <g
       style="font-style:normal;font-variant:normal;font-weight:normal;font-stretch:normal;font-size:3.52778px;line-height:1.25;font-family:Transport;-inkscape-font-specification:Transport;fill:none;fill-opacity:1;stroke:#000000;stroke-width:0.1;stroke-miterlimit:4;stroke-dasharray:none"
       id="text403-7-5"
       aria-label="Reset"
       transform="translate(206.37499)">
      <path
         id="path239"
         style="font-style:normal;font-variant:normal;font-weight:normal;font-stretch:normal;font-size:3.52778px;font-family:Transport;-inkscape-font-specification:Transport;fill:none;stroke:#000000;stroke-width:0.1;stroke-miterlimit:4;stroke-dasharray:none"
         d="m 37.707683,263.02292 h 0.124024 0.07579 0.02756 0.02756 0.02756 0.02756 0.117133 0.02067 0.08268 0.02067 0.213596 q 0.747586,-0.0551 0.999078,0.565 0.103353,0.33073 -0.02067,0.61323 -0.120578,0.29455 -0.406521,0.37896 l 0.01378,0.0138 0.0069,0.0207 0.05512,0.10335 0.02067,0.0413 0.01378,0.0413 0.06201,0.11025 0.02756,0.062 0.01378,0.0207 0.0069,0.0207 0.02067,0.0482 q 0.02584,0.0379 0.03445,0.0689 0.02928,0.0379 0.04134,0.0689 l 0.02067,0.0413 0.01378,0.0344 q 0.02928,0.0499 0.04134,0.0896 0.04651,0.0655 0.06201,0.12402 l 0.01378,0.0138 0.0069,0.0138 0.0069,0.0138 0.02756,0.0689 q 0.02584,0.031 0.02756,0.062 h -0.02067 -0.124024 -0.08957 -0.02756 -0.117134 -0.02067 -0.08268 l -0.02067,-0.0413 q -0.04306,-0.0758 -0.06201,-0.13092 l -0.02067,-0.0345 -0.02067,-0.0344 -0.0069,-0.0276 q -0.03101,-0.0413 -0.04134,-0.0758 l -0.0069,-0.0138 -0.01378,-0.0276 -0.0069,-0.0207 q -0.0086,-0.007 -0.0069,-0.0138 l -0.01378,-0.0138 -0.0069,-0.0138 -0.0069,-0.0207 -0.04134,-0.0827 -0.04134,-0.0758 -0.01378,-0.0276 -0.0069,-0.0276 -0.01378,-0.0138 -0.0069,-0.0207 -0.01378,-0.0207 -0.0069,-0.0138 q -0.02239,-0.0534 -0.04134,-0.0827 l -0.08957,-0.19292 h -0.02756 -0.117133 -0.02067 -0.08268 -0.02067 -0.02756 -0.02067 -0.137804 v 1.02664 h -0.02756 -0.124023 -0.02756 -0.02756 -0.02756 -0.117134 -0.02067 -0.08268 v -0.0276 -0.12403 -0.0551 -0.0551 -0.0207 -0.0276 -0.12402 -0.0207 -0.13781 -0.0551 -0.0276 -0.12402 -0.0207 -0.0207 -0.21359 -0.0482 -0.0207 -0.0276 -0.12403 -0.0965 -0.0207 -0.0345 -0.0207 -0.0276 -0.0207 -0.13781 -0.11713 -0.0207 -0.0827 -0.0896 -0.0276 -0.11713 -0.0207 -0.0827 -0.0758 -0.0344 -0.0896 -0.0276 -0.11713 -0.0207 -0.0827 z m 0.427192,1.20579 h 0.02067 0.02067 0.137804 0.03445 0.02756 0.03445 0.0689 0.02756 0.07579 0.02067 0.02067 0.02756 0.02067 0.04823 q 0.09302,0.002 0.151584,-0.007 0.296278,-0.21015 0.186035,-0.53744 -0.0689,-0.15847 -0.213596,-0.22737 l -0.03445,-0.007 -0.03445,-0.007 q -0.05512,-0.0103 -0.09646,-0.007 h -0.08957 -0.02756 -0.124023 -0.02756 -0.02756 -0.02756 -0.117133 -0.02067 -0.08268 z" />
      <path
         id="path241"
         style="font-style:normal;font-variant:normal;font-weight:normal;font-stretch:normal;font-size:3.52778px;font-family:Transport;-inkscape-font-specification:Transport;fill:none;stroke:#000000;stroke-width:0.1;stroke-miterlimit:4;stroke-dasharray:none"
         d="m 40.830664,263.7395 q 0.80443,0.0293 0.888835,0.81305 l 0.0069,0.10335 q 0.0069,0.0103 0.0069,0.0207 v 0.20671 h -0.05512 -0.137804 -0.02067 -0.02067 -0.213596 -0.04823 -0.04134 -0.04823 -0.04134 -0.03445 -0.04134 -0.02756 -0.124024 -0.07579 -0.02756 -0.02756 -0.02756 -0.02756 -0.117133 -0.02067 -0.08268 q 0.0379,0.3514 0.35829,0.41341 0.323839,0.0396 0.544326,-0.16537 0.02412,0.0379 0.05512,0.062 l 0.0069,0.0207 0.02067,0.0207 q 0.04651,0.0431 0.0689,0.0827 0.01206,0.007 0.01378,0.0138 l 0.09646,0.11024 q -0.442695,0.36863 -0.957737,0.24116 -0.596002,-0.19809 -0.654569,-0.85439 -0.03101,-0.95945 0.806153,-1.08865 z m 0.02067,0.37896 q -0.366903,0.0878 -0.385851,0.44098 h 0.04134 0.117133 0.04134 0.03445 0.04134 0.02756 0.124024 0.07579 0.02756 0.02756 0.02756 0.02756 0.117133 0.05512 0.04823 v -0.0207 q -0.01033,-0.0276 -0.0069,-0.0551 -0.01723,-0.0396 -0.02067,-0.0689 -0.125746,-0.29283 -0.420302,-0.29628 z" />
      <path
         id="path243"
         style="font-style:normal;font-variant:normal;font-weight:normal;font-stretch:normal;font-size:3.52778px;font-family:Transport;-inkscape-font-specification:Transport;fill:none;stroke:#000000;stroke-width:0.1;stroke-miterlimit:4;stroke-dasharray:none"
         d="m 42.703075,263.72572 q 0.470256,-0.009 0.778592,0.2825 l -0.02067,0.0276 -0.02067,0.0207 -0.02067,0.0138 -0.01378,0.0207 -0.01378,0.0207 -0.01378,0.0138 -0.01378,0.007 q -0.02412,0.0327 -0.04134,0.0482 l -0.08957,0.10335 q -0.577054,-0.37035 -0.757922,0.007 0.0017,0.11197 0.08957,0.16536 0.03617,0.0103 0.05512,0.0207 0.06373,0.0103 0.110243,0.0276 0.652846,0.0499 0.73036,0.52365 0.03617,0.40652 -0.289388,0.59945 -0.611505,0.27561 -1.226455,-0.24805 l 0.01378,-0.0276 0.02067,-0.0207 0.01378,-0.0138 q 0.03445,-0.0413 0.06201,-0.062 0.0069,-0.0121 0.01378,-0.0138 l 0.01378,-0.0207 q 0.0069,-0.0121 0.01378,-0.0138 l 0.0069,-0.0138 0.01378,-0.007 0.08957,-0.10335 q 0.35829,0.34107 0.771702,0.19982 0.03101,-0.0413 0.06201,-0.062 0.03445,-0.13953 -0.04823,-0.22738 l -0.158474,-0.0551 q -0.709691,-0.0431 -0.771702,-0.60634 0.04651,-0.56844 0.640788,-0.60634 z" />
      <path
         id="path245"
         style="font-style:normal;font-variant:normal;font-weight:normal;font-stretch:normal;font-size:3.52778px;font-family:Transport;-inkscape-font-specification:Transport;fill:none;stroke:#000000;stroke-width:0.1;stroke-miterlimit:4;stroke-dasharray:none"
         d="m 44.668503,263.7395 q 0.80443,0.0293 0.888835,0.81305 l 0.0069,0.10335 q 0.0069,0.0103 0.0069,0.0207 v 0.20671 h -0.05512 -0.137804 -0.02067 -0.02067 -0.213596 -0.04823 -0.04134 -0.04823 -0.04134 -0.03445 -0.04134 -0.02756 -0.124024 -0.07579 -0.02756 -0.02756 -0.02756 -0.02756 -0.117133 -0.02067 -0.08268 q 0.0379,0.3514 0.35829,0.41341 0.323839,0.0396 0.544325,-0.16537 0.02412,0.0379 0.05512,0.062 l 0.0069,0.0207 0.02067,0.0207 q 0.04651,0.0431 0.0689,0.0827 0.01206,0.007 0.01378,0.0138 l 0.09646,0.11024 q -0.442695,0.36863 -0.957737,0.24116 -0.596002,-0.19809 -0.654569,-0.85439 -0.03101,-0.95945 0.806153,-1.08865 z m 0.02067,0.37896 q -0.366903,0.0878 -0.385851,0.44098 h 0.04134 0.117133 0.04134 0.03445 0.04134 0.02756 0.124024 0.07579 0.02756 0.02756 0.02756 0.02756 0.117133 0.05512 0.04823 v -0.0207 q -0.01034,-0.0276 -0.0069,-0.0551 -0.01723,-0.0396 -0.02067,-0.0689 -0.125747,-0.29283 -0.420302,-0.29628 z" />
      <path
         id="path247"
         style="font-style:normal;font-variant:normal;font-weight:normal;font-stretch:normal;font-size:3.52778px;font-family:Transport;-inkscape-font-specification:Transport;fill:none;stroke:#000000;stroke-width:0.1;stroke-miterlimit:4;stroke-dasharray:none"
         d="m 46.568474,263.02981 q 0.01378,0.0155 0.01378,0.0344 v 0.71659 h 0.03445 0.02756 0.03445 0.02756 0.03445 0.08957 0.02756 0.117133 0.05512 0.04823 v 0.35829 h -0.03445 -0.02756 -0.03445 -0.02756 -0.03445 -0.08957 -0.02756 -0.117133 -0.02067 -0.08268 v 0.92328 q -0.0034,0.0913 0.0069,0.15159 0.163643,0.14986 0.440973,0.0482 l 0.0069,0.0207 v 0.0413 q 0.01033,0.0413 0.0069,0.0758 0.01206,0.0396 0.01378,0.0689 l 0.02067,0.17226 q -0.640788,0.16019 -0.861274,-0.16537 l -0.0069,-0.0138 -0.01378,-0.0413 q -0.02067,-0.0482 -0.02756,-0.0827 v -0.0207 q -0.01033,-0.093 -0.0069,-0.15159 v -0.1378 -0.0413 -0.0207 -0.0276 -0.0207 -0.0344 -0.0207 -0.0276 -0.0207 -0.1378 -0.0276 -0.0276 -0.0207 -0.12403 -0.0896 -0.0276 -0.11713 -0.0207 -0.0827 h -0.02756 -0.02756 -0.02756 -0.02756 -0.117133 -0.02067 -0.08268 v -0.0965 -0.0207 -0.0344 -0.0207 -0.0276 -0.0207 -0.1378 h 0.02756 0.02756 0.02756 0.02756 0.117133 0.05512 0.04823 v -0.0413 -0.0276 -0.12402 -0.0758 -0.0276 -0.0276 -0.0276 -0.0276 -0.11713 -0.0207 -0.0827 l 0.02756,-0.0138 0.02756,-0.007 0.02756,-0.007 0.02067,-0.0138 0.03445,-0.007 q 0.01034,-0.007 0.02067,-0.007 0.01033,-0.007 0.02067,-0.007 0.01034,-0.007 0.02067,-0.007 l 0.02067,-0.0138 0.05512,-0.0138 q 0.0069,-0.009 0.01378,-0.007 0.0069,-0.009 0.01378,-0.007 z" />
    </g>
    <path
       id="path97-1"
       style="fill:none;stroke:#0000ff;stroke-width:0.1;stroke-miterlimit:4;stroke-dasharray:none"
       d="m 344.49454,279.53614 a 5.0000001,5.0000001 0 0 0 5,-5.00002 m 0,0 v -84.99998 c 1e-5,-2.76143 -2.23857,-5.00002 -5.01206,-4.95325 l -116.33499,-0.0479 c -1.41433,0.001 -3.65291,2.24009 -3.6529,5.00133 v 84.9998 c -10e-6,2.76143 2.23857,5.00002 5,5.00002 h 114.99995" />
    <path
       id="path77-87"
       style="display:inline;fill:none;stroke:#ff0000;stroke-width:0.1;stroke-miterlimit:4;stroke-dasharray:none"
       d="m 343.49043,192.03958 a 1.5000023,1.5000023 0 1 0 -3,0 1.5000023,1.5000023 0 1 0 3,0 z" />
    <path
       id="path79-9"
       style="display:inline;fill:none;stroke:#ff0000;stroke-width:0.1;stroke-miterlimit:4;stroke-dasharray:none"
       d="m 343.49043,272.03959 a 1.5000023,1.5000023 0 1 0 -3,0 1.5000023,1.5000023 0 1 0 3,0 z" />
    <path
       id="path22195-1-5"
       style="display:inline;fill:none;fill-opacity:0;stroke:#ff0000;stroke-width:0.1;stroke-linecap:round;stroke-linejoin:round;stroke-miterlimit:4;stroke-dasharray:none;stroke-opacity:1"
       d="m 316.97063,229.25095 v 12.99901 m 5.3e-4,0 h 6.0016 l -5.3e-4,-4.49937 h 1.1989 m 0,-4.00063 h -1.1989 l 2e-4,-4.49907 -6.0016,1.4e-4 m 7.2008,4.49867 v 4.0005"
       sodipodi:nodetypes="cccccccccccc" />
    <rect
       ry="1"
       rx="1"
       y="213.99385"
       x="328.77188"
       height="43.949406"
       width="9.9616089"
       id="rect3691"
       style="display:inline;fill:none;stroke:#ff0000;stroke-width:0.12778;stroke-miterlimit:4;stroke-dasharray:none" />
    <g
       id="g1022">
      <path
         id="path77-8"
         style="fill:none;stroke:#ff0000;stroke-width:0.1;stroke-miterlimit:4;stroke-dasharray:none"
         d="m 343.85774,25.18528 a 1.5000023,1.5000023 0 1 0 -3,0 1.5000023,1.5000023 0 1 0 3,0 z" />
      <path
         id="path79-1"
         style="fill:none;stroke:#ff0000;stroke-width:0.1;stroke-miterlimit:4;stroke-dasharray:none"
         d="m 343.85774,105.1853 a 1.5000023,1.5000023 0 1 0 -3,0 1.5000023,1.5000023 0 1 0 3,0 z" />
      <path
         id="path81-7"
         style="fill:none;stroke:#ff0000;stroke-width:0.1;stroke-miterlimit:4;stroke-dasharray:none"
         d="m 233.85776,105.1853 a 1.5000023,1.5000023 0 1 0 -3,0 1.5000023,1.5000023 0 1 0 3,0 z" />
      <path
         id="path83-3"
         style="fill:none;stroke:#ff0000;stroke-width:0.1;stroke-miterlimit:4;stroke-dasharray:none"
         d="m 233.85776,25.18528 a 1.5000023,1.5000023 0 1 0 -3,0 1.5000023,1.5000023 0 1 0 3,0 z" />
      <path
         sodipodi:nodetypes="ccccccscc"
         d="m 349.85774,107.68529 v -85 c 1e-5,-2.76143 -2.23857,-5.00002 -5.01206,-4.95325 l -116.33502,-0.0479 c -1.41434,0.001 -3.65292,2.24009 -3.6529,5.00133 v 84.99982 c -1e-5,2.76143 2.23857,5.00002 5,5.00002 h 114.99998 c 2.76143,0 5.00001,-2.23859 5,-5.00002 z"
         style="fill:none;stroke:#0000ff;stroke-width:0.1;stroke-miterlimit:4;stroke-dasharray:none"
         id="path107-7" />
      <rect
         style="display:inline;fill:none;stroke:#ff0000;stroke-width:0.1;stroke-miterlimit:4;stroke-dasharray:none"
         id="rect3691-6"
         width="14.546316"
         height="60.757"
         x="294.95752"
         y="43.696922"
         rx="1.4602375"
         ry="1.3824306" />
    </g>
  </g>
</svg>
